<svg width="41" height="53" viewBox="0 0 41 53" fill="none" xmlns="http://www.w3.org/2000/svg">
<path d="M25.7946 0.0533325C25.7178 0.104529 25.6837 0.573832 25.6666 1.74282L25.641 3.37258L23.0897 2.49371L20.5469 1.6063L19.8046 1.87081C19.4035 2.01587 17.0912 2.81795 14.6764 3.65417C9.41165 5.48018 9.03621 5.6167 8.89116 5.7447C8.80583 5.82149 9.12154 6.04334 10.2991 6.77716L11.8179 7.71577V9.11514V10.5231L9.32633 10.5486L6.82622 10.5657L6.78356 10.762C6.75796 10.8644 6.74943 11.8115 6.75796 12.861L6.78356 14.7638L9.19834 15.6768L11.6216 16.5813L11.5619 17.1786C11.5363 17.5029 11.1267 21.2146 10.666 25.4127C10.1967 29.6109 9.66764 34.4916 9.47138 36.2494C9.28366 38.0071 9.07034 39.927 9.00208 40.5158C8.93382 41.1045 8.7205 42.9988 8.53278 44.7395C8.1232 48.4683 8.11467 48.5366 7.98668 48.5366C7.76483 48.5366 0 50.9599 0 51.0282C0 51.0537 12.0483 51.0282 13.2258 51.0111C13.6012 51.0026 13.5927 50.994 12.9698 50.8319C11.9288 50.5674 11.852 50.5247 11.9032 50.209C11.9203 50.0639 12.0227 49.4923 12.1251 48.9291C12.2189 48.3745 12.2787 47.9052 12.2616 47.8881C12.2445 47.8625 11.835 47.9137 11.3571 47.9905C10.8793 48.0758 10.4783 48.1185 10.4612 48.1014C10.4441 48.0843 10.555 46.8215 10.7172 45.2941C10.8708 43.7668 11.0073 42.4356 11.0073 42.3332C11.0073 42.2053 11.3913 41.8213 12.3555 41.0021C13.0893 40.3707 13.7548 39.7819 13.8316 39.6966C13.9511 39.5601 14.2497 38.2887 14.2497 37.9303C14.2497 37.8621 13.678 37.3501 12.9698 36.7955C11.3059 35.4729 11.3145 35.5753 12.7394 34.321C13.3111 33.809 14.0364 33.152 14.3521 32.8448C14.9238 32.3072 14.9324 32.2987 15.103 32.4523C15.1969 32.5376 15.2907 32.5888 15.2993 32.5718C15.3163 32.5547 15.3846 32.2475 15.4443 31.8977C15.5297 31.3772 15.5297 31.2577 15.4443 31.2321C15.2054 31.1468 12.3725 28.9539 12.3725 28.8515C12.3725 28.7661 12.748 28.7405 14.1985 28.7405C15.2054 28.7405 16.0502 28.7149 16.0672 28.6723C16.0928 28.6381 16.1355 28.4334 16.1611 28.203L16.2208 27.8019H14.3436H12.4579L12.492 27.6057C12.5176 27.5033 12.5347 27.3924 12.5347 27.3582C12.5432 27.3241 13.004 26.9913 13.5586 26.6159L14.574 25.9418L15.4358 26.8121L16.2891 27.6825L16.3829 27.2132C16.4341 26.9486 16.4939 26.6927 16.5024 26.65C16.5195 26.5988 16.2805 26.3087 15.9734 25.993C15.6662 25.6773 15.4273 25.4042 15.4529 25.3872C15.4699 25.3701 15.8198 25.1397 16.2208 24.8837L16.9546 24.4059L17.057 23.8768C17.1168 23.5867 17.185 23.2966 17.2106 23.2284C17.2362 23.1601 16.7157 23.4502 16.0502 23.8768C15.3761 24.295 14.8129 24.6448 14.7788 24.6448C14.6252 24.6448 12.9698 22.8785 12.9784 22.7249C12.9784 22.6311 13.1746 22.3836 13.4391 22.1703C13.6866 21.957 14.3521 21.3682 14.9238 20.8648L15.9563 19.9432L16.4512 20.2334C16.7157 20.3955 17.0997 20.6088 17.2874 20.7027L17.6373 20.8818L17.7396 20.404C17.7908 20.1395 17.825 19.9176 17.8079 19.9091C17.7994 19.9006 17.4666 19.7129 17.0656 19.4825C16.3915 19.0985 13.6439 17.4773 13.5757 17.4261C13.5671 17.4175 13.5757 17.2042 13.6098 16.9653L13.6695 16.5216L16.0331 16.5557L18.3881 16.5813L18.9428 16.897C20.0008 17.4943 21.1272 17.5029 22.1767 16.9056L22.7399 16.5899L25.1205 16.5557C26.426 16.5387 27.5267 16.5557 27.5609 16.5984C27.595 16.6325 27.6547 16.8458 27.6803 17.0762C27.7315 17.4175 27.723 17.4858 27.5865 17.537C27.5011 17.5626 26.5113 18.1258 25.3765 18.7742L23.3201 19.9518L23.4054 20.404C23.4481 20.6429 23.4993 20.8562 23.5078 20.8733C23.5163 20.8904 23.9003 20.6771 24.3525 20.4211L25.1717 19.9347L25.6154 20.3357C25.8629 20.5576 26.5369 21.1378 27.1172 21.6327C27.8425 22.2642 28.1582 22.5884 28.1582 22.7164C28.1582 22.8359 27.8339 23.2198 27.2366 23.8171L26.3151 24.7387L25.1717 23.9707C24.5403 23.5526 24.0112 23.2113 24.0027 23.2284C23.9771 23.254 24.2075 24.4741 24.2416 24.5083C24.2587 24.5253 24.5744 24.7301 24.9413 24.9776C25.2997 25.2165 25.5983 25.4469 25.5983 25.481C25.5983 25.5066 25.385 25.7541 25.1205 26.0186L24.6427 26.5049L24.7451 27.0852L24.8475 27.6739L25.6751 26.8292L26.5113 25.993L26.8868 26.2746C27.1001 26.4367 27.5865 26.7695 27.9619 27.0254C29.1053 27.7849 29.0797 27.8019 26.8271 27.8019H24.9072L24.9584 28.1176C25.0778 28.8003 24.8901 28.7405 26.9721 28.7405C28.0728 28.7405 28.8408 28.7747 28.8408 28.8173C28.8408 28.9197 28.4056 29.2696 27.0916 30.2167C26.5284 30.6263 25.9567 31.0444 25.8202 31.1553L25.5813 31.3516L25.6922 31.9574C25.8031 32.5547 25.8031 32.5632 25.9908 32.4352C26.1786 32.3158 26.2212 32.3499 27.066 33.1093C27.5523 33.553 28.3032 34.21 28.7384 34.5855C29.404 35.1486 29.5319 35.2852 29.5063 35.4729C29.4893 35.6436 29.2077 35.9166 28.3374 36.6078C26.6735 37.9389 26.8185 37.6914 27.0233 38.7495C27.2366 39.8331 27.2366 39.8246 28.8835 41.1216L30.1036 42.0773L30.1634 42.9391C30.189 43.4169 30.2914 44.5262 30.3852 45.4221C30.4791 46.3095 30.5815 47.2993 30.6071 47.6065L30.6583 48.1782L29.8135 48.0161C28.8237 47.8369 28.7299 47.8284 28.7981 47.9308C28.8323 47.999 28.9944 48.8352 29.2248 50.1322C29.276 50.4735 29.2418 50.4906 28.0643 50.8404C27.4329 51.0196 27.3049 51.0793 27.6035 51.0367C27.8425 51.0026 28.107 50.977 28.2008 50.977C28.2947 50.9684 28.3971 50.9343 28.4227 50.9002C28.4483 50.8575 28.5251 50.8746 28.5933 50.9428C28.6872 51.0367 29.8306 51.0452 34.8564 51.0111L41 50.9684L39.5494 50.4821C37.9453 49.9445 35.8718 49.2875 34.2335 48.8011C33.312 48.5195 33.1498 48.4427 33.0901 48.2721C33.0304 48.0673 32.9024 47.0519 31.9894 39.0652C31.119 31.4198 30.7436 28.0664 30.2914 24.0475C29.9074 20.5832 29.6002 17.8783 29.4893 16.9397C29.4552 16.6155 29.4552 16.6069 29.8903 16.4192C30.1378 16.3083 31.1958 15.9072 32.2539 15.5147C33.312 15.1222 34.2164 14.7638 34.2762 14.7212C34.3444 14.67 34.3786 14.1154 34.3786 12.733C34.3786 11.6835 34.3615 10.762 34.3359 10.6937C34.2932 10.5828 33.9093 10.5657 31.7761 10.5657H29.2674L29.2845 9.10661L29.3101 7.64751L30.8204 6.74303C31.6566 6.2396 32.3222 5.79589 32.3051 5.7447C32.2795 5.63377 31.9979 5.53138 28.8835 4.46478L26.3236 3.59444L26.281 1.81108C26.2383 0.104529 26.2298 0.0277342 26.0676 0.00213588C25.9738 -0.0063969 25.8458 0.0106687 25.7946 0.0533325ZM29.3357 5.65937L29.3528 5.87269H20.6493H11.9459V5.65937V5.44605H20.6323H29.3186L29.3357 5.65937ZM17.5775 8.60318V10.2244H15.5723H13.5671V8.60318V6.98195H15.5723H17.5775V8.60318ZM22.6545 7.42565C22.6887 7.6731 22.6972 8.01441 22.6801 8.17654C22.6545 8.47518 22.6375 8.48372 20.9906 9.34553C19.5913 10.0793 19.267 10.2159 18.9257 10.2159L18.5161 10.2244V8.60318V6.98195H20.5555H22.6033L22.6545 7.42565ZM26.1018 7.26353C26.0847 7.27206 25.6837 7.46832 25.2144 7.70723L24.3611 8.13387L24.0624 9.18341C23.9003 9.76363 23.7297 10.2415 23.6785 10.25C23.6273 10.2585 23.5846 9.69537 23.5675 8.7141L23.5505 7.16114L24.8048 7.13554C25.5045 7.11847 26.0847 7.14407 26.1018 7.1782C26.1103 7.22087 26.1103 7.255 26.1018 7.26353ZM30.1207 11.7688V12.1016H27.9448H25.769V11.8456V11.5896H27.5097C28.8323 11.5896 29.2589 11.5641 29.293 11.4787C29.3186 11.4105 29.4637 11.3849 29.7282 11.4019L30.1207 11.4361V11.7688ZM10.3247 11.7603V12.1016H9.08741H7.85016V11.7603V11.419H9.08741H10.3247V11.7603ZM11.9459 11.5043C11.9459 11.5555 12.5858 11.5896 13.6866 11.5896H15.4273L15.4614 11.8456L15.5041 12.1016H13.2514H11.0073V11.7603V11.419H11.4766C11.7326 11.419 11.9459 11.4531 11.9459 11.5043ZM33.3632 11.7603V12.1016H32.1259H30.8887V11.7603V11.419H32.1259H33.3632V11.7603ZM20.2227 11.8456V12.1016H18.2601H16.2976V11.8456V11.5896H18.2601H20.2227V11.8456ZM25.001 11.8456V12.1016H22.9702H20.9394L20.9565 11.8627C20.965 11.7347 20.9821 11.6238 20.9821 11.6067C20.9906 11.5982 21.8951 11.5896 22.9958 11.5896H25.001V11.8456ZM10.2991 13.2109L10.3161 13.4669H9.08741H7.85016V13.2109V12.9549H9.07034H10.282L10.2991 13.2109ZM15.4614 13.2109L15.4273 13.4669H13.2173H11.0073V13.2109V12.9549H13.2514H15.5041L15.4614 13.2109ZM25.001 13.2109V13.4669H20.6493H16.2976V13.2109V12.9549H20.6493H25.001V13.2109ZM30.1207 13.2109V13.4669H27.9448H25.769V13.2109V12.9549H27.9448H30.1207V13.2109ZM33.3632 13.2109V13.4669H32.1259H30.8887V13.2109V12.9549H32.1259H33.3632V13.2109ZM22.1852 15.8048C22.1852 15.9755 21.7586 16.3765 21.4173 16.5216C21.0248 16.6923 20.1459 16.6752 19.7534 16.496C19.4633 16.3509 19.0281 15.9243 19.0281 15.7622C19.0281 15.7195 19.7022 15.6854 20.6067 15.6854C21.8866 15.6854 22.1852 15.711 22.1852 15.8048ZM14.4033 19.0132C14.8385 19.2691 15.1798 19.4995 15.1713 19.5337C15.1371 19.6275 13.1917 21.3085 13.1575 21.2744C13.0807 21.1976 13.4306 18.4927 13.5159 18.5183C13.5671 18.5353 13.9682 18.7572 14.4033 19.0132ZM27.8169 18.6292C27.8169 18.706 27.8766 19.3203 27.9448 20.0115C28.0216 20.6941 28.0643 21.2744 28.0387 21.2914C28.0131 21.317 27.0148 20.4979 26.6223 20.1224C26.5455 20.0542 26.3578 19.8835 26.1956 19.747C26.0335 19.6105 25.9396 19.4825 25.9908 19.4654C26.042 19.4483 26.4431 19.2265 26.8868 18.9705C27.3305 18.7145 27.7145 18.5097 27.7571 18.5012C27.7913 18.5012 27.8169 18.5609 27.8169 18.6292ZM13.8231 25.2165C13.806 25.2762 12.6882 26.0186 12.6626 25.9844C12.637 25.9588 12.8077 24.3547 12.8504 24.2352C12.8845 24.1158 13.8487 25.0885 13.8231 25.2165ZM28.4824 25.9844C28.4653 26.0442 28.2008 25.9247 27.8339 25.6858L27.211 25.2933L27.7486 24.7557L28.2862 24.2096L28.3971 25.0458C28.4483 25.5066 28.4909 25.9247 28.4824 25.9844ZM13.3367 31.1297C14.2241 31.8038 14.2583 31.8465 14.1047 31.983C14.0194 32.0683 13.4562 32.5632 12.8504 33.0923C11.7838 34.0223 11.7496 34.0479 11.8008 33.7663C11.8264 33.6042 11.9118 32.9216 11.9886 32.239C12.1933 30.3191 12.2019 30.2594 12.3128 30.3447C12.3725 30.3874 12.8333 30.7372 13.3367 31.1297ZM29.0114 30.4471C29.0114 30.4983 29.0882 31.2918 29.1821 32.2134C29.276 33.1349 29.3357 33.9029 29.3101 33.9285C29.2674 33.9711 28.1838 33.0667 27.3476 32.2902C26.8953 31.8721 26.8527 31.8038 26.9806 31.727C27.066 31.6758 27.5097 31.3516 27.9619 31.0017C28.7725 30.3959 29.0114 30.2679 29.0114 30.4471ZM29.8221 38.5362C29.8989 39.2956 29.9501 39.9611 29.933 40.0038C29.8989 40.0977 27.9875 38.6215 28.0131 38.5191C28.0387 38.4594 29.6343 37.1027 29.6685 37.1368C29.6685 37.1368 29.7453 37.7682 29.8221 38.5362ZM12.5176 37.9901L13.1234 38.4935L12.4323 39.0823C12.0483 39.4065 11.6302 39.7478 11.5022 39.8417L11.2633 40.0123V39.7308C11.2633 39.5772 11.323 38.9713 11.3913 38.3826C11.4595 37.7938 11.5193 37.2818 11.5193 37.2477C11.5193 37.1709 11.596 37.2221 12.5176 37.9901ZM12.6541 50.9002C12.5944 50.9172 12.4749 50.9172 12.3981 50.9002C12.3128 50.8746 12.364 50.8575 12.5005 50.8575C12.6456 50.8575 12.7053 50.8746 12.6541 50.9002ZM28.9858 50.8916C28.9602 50.9172 28.8835 50.9258 28.8237 50.9002C28.7555 50.8746 28.7811 50.849 28.8749 50.849C28.9688 50.8404 29.02 50.866 28.9858 50.8916Z" fill="#11AF74"/>
<path d="M11.792 50.4336C14.1504 51.5221 22.3141 52.9735 29.3893 50.4336C21.9513 47.7124 14.2713 49.2847 11.792 50.4336Z" fill="#69C899"/>
<path d="M29.3893 50.4336C21.9513 47.7124 14.2713 49.2847 11.792 50.4336L18.323 16.3275C18.6834 16.6579 19.0501 16.9145 19.4115 17.0531C20.7958 17.5843 22.2829 16.855 22.8584 16.3275L29.3893 50.4336Z" fill="#69C899"/>
<path d="M19.4115 17.0531C18.9263 16.8833 18.6869 16.729 18.323 16.3275L11.792 50.4336L14.1504 49.708L19.4115 17.0531Z" fill="url(#paint0_linear_150_14)"/>
<path d="M21.5885 17.0531C22.1272 16.8598 22.4034 16.6987 22.8584 16.3275L29.3894 50.4336L26.8496 49.708L21.5885 17.0531Z" fill="url(#paint1_linear_150_14)"/>
<g clip-path="url(#paint2_diamond_150_14_clip_path)" data-figma-skip-parse="true"><g transform="matrix(0.00852655 -0.000181416 9.90734e-05 0.00465645 20.5 50.4337)"><rect x="0" y="0" width="1163.61" height="599.771" fill="url(#paint2_diamond_150_14)" opacity="1" shape-rendering="crispEdges"/><rect x="0" y="0" width="1163.61" height="599.771" transform="scale(1 -1)" fill="url(#paint2_diamond_150_14)" opacity="1" shape-rendering="crispEdges"/><rect x="0" y="0" width="1163.61" height="599.771" transform="scale(-1 1)" fill="url(#paint2_diamond_150_14)" opacity="1" shape-rendering="crispEdges"/><rect x="0" y="0" width="1163.61" height="599.771" transform="scale(-1)" fill="url(#paint2_diamond_150_14)" opacity="1" shape-rendering="crispEdges"/></g></g><path d="M29.3893 50.4337C21.9077 53.2658 14.4486 51.6805 11.792 50.4337L14.1504 49.708C18.6129 50.9077 21.4163 50.8536 26.8495 49.708L29.3893 50.4337Z" data-figma-gradient-fill="{&#34;type&#34;:&#34;GRADIENT_DIAMOND&#34;,&#34;stops&#34;:[{&#34;color&#34;:{&#34;r&#34;:0.41176471114158630,&#34;g&#34;:0.78431373834609985,&#34;b&#34;:0.60000002384185791,&#34;a&#34;:1.0},&#34;position&#34;:0.0},{&#34;color&#34;:{&#34;r&#34;:0.20000000298023224,&#34;g&#34;:0.68235296010971069,&#34;b&#34;:0.49411764740943909,&#34;a&#34;:1.0},&#34;position&#34;:1.0}],&#34;stopsVar&#34;:[{&#34;color&#34;:{&#34;r&#34;:0.41176471114158630,&#34;g&#34;:0.78431373834609985,&#34;b&#34;:0.60000002384185791,&#34;a&#34;:1.0},&#34;position&#34;:0.0},{&#34;color&#34;:{&#34;r&#34;:0.20000000298023224,&#34;g&#34;:0.68235296010971069,&#34;b&#34;:0.49411764740943909,&#34;a&#34;:1.0},&#34;position&#34;:1.0}],&#34;transform&#34;:{&#34;m00&#34;:17.053098678588867,&#34;m01&#34;:0.19814676046371460,&#34;m02&#34;:11.874334335327148,&#34;m10&#34;:-0.36283197999000549,&#34;m11&#34;:9.3128948211669922,&#34;m12&#34;:45.958641052246094},&#34;opacity&#34;:1.0,&#34;blendMode&#34;:&#34;NORMAL&#34;,&#34;visible&#34;:true}"/>
<defs>
<clipPath id="paint2_diamond_150_14_clip_path"><path d="M29.3893 50.4337C21.9077 53.2658 14.4486 51.6805 11.792 50.4337L14.1504 49.708C18.6129 50.9077 21.4163 50.8536 26.8495 49.708L29.3893 50.4337Z"/></clipPath><linearGradient id="paint0_linear_150_14" x1="15.6017" y1="16.3275" x2="15.6017" y2="50.4336" gradientUnits="userSpaceOnUse">
<stop stop-color="#72CA9C"/>
<stop offset="1" stop-color="#33AE7E"/>
</linearGradient>
<linearGradient id="paint1_linear_150_14" x1="25.4889" y1="16.3275" x2="25.4889" y2="50.4336" gradientUnits="userSpaceOnUse">
<stop stop-color="#72CA9C"/>
<stop offset="1" stop-color="#33AE7E"/>
</linearGradient>
<linearGradient id="paint2_diamond_150_14" x1="0" y1="0" x2="500" y2="500" gradientUnits="userSpaceOnUse">
<stop stop-color="#69C899"/>
<stop offset="1" stop-color="#33AE7E"/>
</linearGradient>
</defs>
</svg>
